# xmcd
#
# Track frame offsets:
# 150
# 18857
# 37404
# 55289
# 76434
# 94653
# 117122
# 142495
# 167757
#
# Disc length: 2510 seconds
#
#
# Revision: 2
# Processed by: cddbd v1.5.2PL0 Copyright (c) Steve Scherf et al.
# Submitted via: FreeRIP 2.945 
#
DISCID=7b09cc09
DTITLE=Atlantic Starr - As The Band Turns
DYEAR=1900
DGENRE=R&B
TTITLE0=Freak-A-Ristic
TTITLE1=Cool, Calm Collected
TTITLE2=One Love
TTITLE3=In The Heat Of Pashion
TTITLE4=If Your Heart Isn't In It
TTITLE5=Silver Shadow
TTITLE6=Let's Start It Over
TTITLE7=Secret Lovers
TTITLE8=Thank You
EXTD=
EXTT0=
EXTT1=
EXTT2=
EXTT3=
EXTT4=
EXTT5=
EXTT6=
EXTT7=
EXTT8=
PLAYORDER=
